<svg xmlns="http://www.w3.org/2000/svg" width="16" height="16" viewBox="0 0 16 16">
  <defs>
    <style>
      .cls-1 {
        fill: #fff;
        fill-rule: evenodd;
      }
    </style>
  </defs>
  <path id="审批icon" class="cls-1" d="M5758.76,2127.26l-6.52,4.67a0.446,0.446,0,0,1-.48,0l-6.52-4.67a0.653,0.653,0,0,1-.24-0.45v-8.39a0.427,0.427,0,0,1,.29-0.37l6.43-2.01a0.789,0.789,0,0,1,.28-0.04,0.847,0.847,0,0,1,.29.04l6.43,2.01a0.432,0.432,0,0,1,.28.37v8.39A0.653,0.653,0,0,1,5758.76,2127.26Zm-1.12-8.22-5.64-1.77-5.64,1.77v7.43l5.64,4.04,5.64-4.04v-7.43Zm-6.7,7.07-2.39-3.03a0.139,0.139,0,0,1,.12-0.22h1.05a0.33,0.33,0,0,1,.24.12l1.23,1.55,2.85-3.62a0.325,0.325,0,0,1,.25-0.11h1.04a0.141,0.141,0,0,1,.13.22l-4.03,5.09A0.323,0.323,0,0,1,5750.94,2126.11Z" transform="translate(-5744 -2116)"/>
</svg>
