<svg id="marquee_checked_" data-name="marquee_checked " xmlns="http://www.w3.org/2000/svg" width="14" height="14" viewBox="0 0 14 14">
  <defs>
    <style>
      .cls-1 {
        fill: #2eb3ff;
      }

      .cls-2 {
        fill: #fff;
        fill-rule: evenodd;
      }
    </style>
  </defs>
  <rect id="marquee_default" class="cls-1" width="14" height="14" rx="2" ry="2"/>
  <path id="_" data-name="√" class="cls-2" d="M2319.06,2386.84a0.463,0.463,0,0,1-.34-0.15l-2.99-2.01a0.489,0.489,0,0,1,0-.69,0.477,0.477,0,0,1,.68,0l2.65,1.67,4.65-4.67a0.477,0.477,0,0,1,.68,0,0.472,0.472,0,0,1,0,.69l-4.98,5.01A0.5,0.5,0,0,1,2319.06,2386.84Z" transform="translate(-2313 -2377)"/>
</svg>
