<?xml version="1.0" standalone="no"?><!DOCTYPE svg PUBLIC "-//W3C//DTD SVG 1.1//EN" "http://www.w3.org/Graphics/SVG/1.1/DTD/svg11.dtd"><svg t="1640750430436" class="icon" viewBox="0 0 1024 1024" version="1.1" xmlns="http://www.w3.org/2000/svg" p-id="5939" xmlns:xlink="http://www.w3.org/1999/xlink" width="10" height="10"><defs><style type="text/css"></style></defs><path d="M889.27 378.3A56.42 56.42 0 0 0 927 431.42v418.46a75.46 75.46 0 0 1-75.46 75.45H398.82V736.7h-75.45v188.63H172.46A75.46 75.46 0 0 1 97 849.88V431.42a56.27 56.27 0 0 0 0-106.25V170.8a75.47 75.47 0 0 1 75.46-75.46h679.08A75.47 75.47 0 0 1 927 170.8v154.37a56.42 56.42 0 0 0-37.73 53.13z m-37.73 471.58V470.4a131.29 131.29 0 0 1 0-184.21V170.8H172.46v115.39a131.29 131.29 0 0 1 0 184.21v379.48h75.45V736.7a75.45 75.45 0 0 1 75.46-75.45h75.45a75.45 75.45 0 0 1 75.45 75.45v113.18z" fill="#8a8a8a" p-id="5940"></path><path d="M549.73 661.25m37.73 0l-0.01 0q37.73 0 37.73 37.73l0 150.9q0 37.73-37.73 37.73l0.01 0q-37.73 0-37.73-37.73l0-150.9q0-37.73 37.73-37.73Z" fill="#8a8a8a" p-id="5941"></path><path d="M700.63 661.25m37.73 0l-0.01 0q37.73 0 37.73 37.73l0 150.9q0 37.73-37.73 37.73l0.01 0q-37.73 0-37.73-37.73l0-150.9q0-37.73 37.73-37.73Z" fill="#8a8a8a" p-id="5942"></path><path d="M662.91 548.07H361.09a75.46 75.46 0 0 1-75.45-75.46V359.43A75.45 75.45 0 0 1 361.09 284h301.82a75.45 75.45 0 0 1 75.45 75.45v113.16a75.46 75.46 0 0 1-75.45 75.46z m0-75.46V359.43H361.09v113.18z" fill="#8a8a8a" p-id="5943"></path></svg>