<?xml version="1.0" standalone="no"?><!DOCTYPE svg PUBLIC "-//W3C//DTD SVG 1.1//EN" "http://www.w3.org/Graphics/SVG/1.1/DTD/svg11.dtd"><svg t="1642128693592" class="icon" viewBox="0 0 1024 1024" version="1.1" xmlns="http://www.w3.org/2000/svg" p-id="9920" xmlns:xlink="http://www.w3.org/1999/xlink" width="200" height="200"><defs><style type="text/css"></style></defs><path d="M153.6 889.856c-5.12 0-10.24-2.048-14.336-6.144-8.192-8.192-8.192-20.992 0-29.184L854.528 139.776c8.192-8.192 20.992-8.192 29.184 0 8.192 8.192 8.192 20.992 0 29.184L168.448 884.224c-4.096 3.584-9.216 5.632-14.848 5.632z" fill="#d81e06" p-id="9921"></path><path d="M870.4 889.856c-5.12 0-10.24-2.048-14.336-6.144L139.264 169.984c-8.192-8.192-8.192-20.992 0-29.184 8.192-8.192 20.992-8.192 29.184 0L884.736 855.04c8.192 8.192 8.192 20.992 0 29.184-4.096 3.584-9.216 5.632-14.336 5.632z" fill="#d81e06" p-id="9922"></path></svg>