<svg xmlns="http://www.w3.org/2000/svg" width="16" height="16" viewBox="0 0 16 16">
  <metadata><?xpacket begin="﻿" id="W5M0MpCehiHzreSzNTczkc9d"?>
<x:xmpmeta xmlns:x="adobe:ns:meta/" x:xmptk="Adobe XMP Core 5.6-c138 79.159824, 2016/09/14-01:09:01        ">
   <rdf:RDF xmlns:rdf="http://www.w3.org/1999/02/22-rdf-syntax-ns#">
      <rdf:Description rdf:about=""/>
   </rdf:RDF>
</x:xmpmeta>
                                                                                                    
                                                                                                    
                                                                                                    
                                                                                                    
                                                                                                    
                                                                                                    
                                                                                                    
                                                                                                    
                                                                                                    
                                                                                                    
                                                                                                    
                                                                                                    
                                                                                                    
                                                                                                    
                                                                                                    
                                                                                                    
                                                                                                    
                                                                                                    
                                                                                                    
                                                                                                    
                           
<?xpacket end="w"?></metadata>
<defs>
    <style>
      .cls-1 {
        fill: #fff;
        fill-rule: evenodd;
      }
    </style>
  </defs>
  <path id="镜像管理icon" class="cls-1" d="M51.644,1274.98H47.022v-4.62a0.358,0.358,0,0,0-.356-0.36H36.356a0.358,0.358,0,0,0-.356.36v10.31a0.356,0.356,0,0,0,.356.35h4.622v4.62a0.358,0.358,0,0,0,.356.36H51.644a0.358,0.358,0,0,0,.356-0.36v-10.31a0.355,0.355,0,0,0-.356-0.35h0Zm-10.667.35v4.18H37.511v-8h8v3.47H41.333a0.355,0.355,0,0,0-.356.35h0Zm4.533,1.16v3.02H42.489v-3.02h3.022Zm4.978,8h-8v-3.47h4.178a0.355,0.355,0,0,0,.356-0.35v-4.18h3.467v8Zm0,0" transform="translate(-36 -1270)"/>
</svg>
