<svg xmlns="http://www.w3.org/2000/svg" width="16" height="16" viewBox="0 0 16 16">
  <metadata><?xpacket begin="﻿" id="W5M0MpCehiHzreSzNTczkc9d"?>
<x:xmpmeta xmlns:x="adobe:ns:meta/" x:xmptk="Adobe XMP Core 5.6-c138 79.159824, 2016/09/14-01:09:01        ">
   <rdf:RDF xmlns:rdf="http://www.w3.org/1999/02/22-rdf-syntax-ns#">
      <rdf:Description rdf:about=""/>
   </rdf:RDF>
</x:xmpmeta>
                                                                                                    
                                                                                                    
                                                                                                    
                                                                                                    
                                                                                                    
                                                                                                    
                                                                                                    
                                                                                                    
                                                                                                    
                                                                                                    
                                                                                                    
                                                                                                    
                                                                                                    
                                                                                                    
                                                                                                    
                                                                                                    
                                                                                                    
                                                                                                    
                                                                                                    
                                                                                                    
                           
<?xpacket end="w"?></metadata>
<defs>
    <style>
      .cls-1 {
        fill: #fff;
        fill-rule: evenodd;
      }
    </style>
  </defs>
  <path id="监测icon" class="cls-1" d="M1752.43,1054h-14.86a0.607,0.607,0,0,0-.57.64v12.72a0.607,0.607,0,0,0,.57.64h14.86a0.607,0.607,0,0,0,.57-0.64v-12.72a0.607,0.607,0,0,0-.57-0.64h0Zm-0.72,12.57h-13.42v-11.14h13.42v11.14Zm0,0-11.76-1.64a0.134,0.134,0,0,0,.2,0l3.08-3.43,2.04,2.28a0.134,0.134,0,0,0,.2,0l5.31-5.91a0.2,0.2,0,0,0,0-.23l-0.66-.73a0.134,0.134,0,0,0-.2,0l-4.55,5.06-2.04-2.27a0.134,0.134,0,0,0-.2,0l-3.84,4.27a0.2,0.2,0,0,0,0,.23Zm0,0" transform="translate(-1737 -1053)"/>
</svg>
