<svg xmlns="http://www.w3.org/2000/svg" width="16" height="16" viewBox="0 0 16 16">
  <defs>
    <style>
      .cls-1 {
        fill: #fff;
        fill-rule: evenodd;
      }
    </style>
  </defs>
  <path id="密码icon" class="cls-1" d="M4420.45,1431h-10.91a0.549,0.549,0,0,1-.54-0.56v-6.72a0.549,0.549,0,0,1,.54-0.56h1.16v-3.92a2.213,2.213,0,0,1,2.19-2.24h4.22a2.2,2.2,0,0,1,2.18,2.24v3.92h1.16a0.557,0.557,0,0,1,.55.56v6.72A0.557,0.557,0,0,1,4420.45,1431Zm-2.38-11.76a0.971,0.971,0,0,0-.96-0.98h-4.22a0.971,0.971,0,0,0-.96.98v3.92h6.14v-3.92Zm1.7,5.18h-9.54v5.32h9.54v-5.32Zm-4.77,1.36a0.835,0.835,0,0,1,.82.84,0.877,0.877,0,0,1-.34.69v0.92a0.143,0.143,0,0,1-.14.14h-0.68a0.137,0.137,0,0,1-.14-0.14v-0.92a0.877,0.877,0,0,1-.34-0.69A0.835,0.835,0,0,1,4415,1425.78Z" transform="translate(-4407 -1416)"/>
</svg>
