<svg xmlns="http://www.w3.org/2000/svg" width="16" height="16" viewBox="0 0 16 16">
  <defs>
    <style>
      .cls-1 {
        fill: #fff;
        fill-rule: evenodd;
      }
    </style>
  </defs>
  <path id="系统管理icon" class="cls-1" d="M78.36,1374H63.64a0.642,0.642,0,0,1-.64-0.64v-14.72a0.642,0.642,0,0,1,.64-0.64H78.36a0.642,0.642,0,0,1,.64.64v14.72A0.642,0.642,0,0,1,78.36,1374Zm-0.8-14.56H64.44v13.12H77.56v-13.12Zm-10,6.02a2.246,2.246,0,0,1,.64-0.1,1.944,1.944,0,0,0-.64.1v-4.42a0.159,0.159,0,0,1,.16-0.16h0.96a0.159,0.159,0,0,1,.16.16v4.42a2.081,2.081,0,0,1,0,3.96,2.242,2.242,0,0,1-.64.1,1.941,1.941,0,0,0,.64-0.1v1.54a0.159,0.159,0,0,1-.16.16H67.72a0.159,0.159,0,0,1-.16-0.16v-1.54A2.081,2.081,0,0,1,67.56,1365.46Zm0,2.31a0.109,0.109,0,0,0,.02.04h0l0.024,0.04s0,0,.006.01a0.234,0.234,0,0,0,.02.03h0.006a0.441,0.441,0,0,0,.028.04h0.006l0.024,0.03H67.7l0.032,0.03c0.01,0.01.022,0.02,0.034,0.03h0.01a0.043,0.043,0,0,0,.028.02c0,0.01.006,0.01,0.008,0.01a0.07,0.07,0,0,0,.038.02s0.006,0,.008.01,0.022,0.01.032,0.01l0.012,0.01c0.014,0,.026.01,0.04,0.01s0.028,0.01.042,0.02H68c0.01,0,.022.01,0.034,0.01h0.01a0.072,0.072,0,0,0,.044.01H68.1c0.012,0,.024.01,0.036,0.01H68.25a0.05,0.05,0,0,1,.036-0.01H68.3a0.072,0.072,0,0,0,.044-0.01h0.01a0.045,0.045,0,0,0,.034-0.01H68.4c0.014-.01.028-0.01,0.042-0.02s0.026-.01.04-0.01l0.012-.01c0.012,0,.022-0.01.032-0.01s0.006-.01.008-0.01,0.026-.01.038-0.02,0.006,0,.008-0.01a0.049,0.049,0,0,0,.028-0.02h0.01l0.034-.03c0.012-.01.022-0.02,0.032-0.03h0.008l0.024-.03h0.006a0.136,0.136,0,0,0,.028-0.04h0.006c0.006-.01.014-0.02,0.02-0.03s0-.01.006-0.01l0.024-.04h0a0.159,0.159,0,0,0,.02-0.04,0.707,0.707,0,0,0,0-.66,0.109,0.109,0,0,0-.02-0.04h0l-0.024-.04s0,0-.006-0.01a0.234,0.234,0,0,0-.02-0.03H68.746a0.441,0.441,0,0,0-.028-0.04l-0.038-.03-0.032-.03c-0.01-.01-0.022-0.02-0.034-0.03H68.6a0.043,0.043,0,0,0-.028-0.02c0-.01-0.006-0.01-0.008-0.01a0.072,0.072,0,0,0-.038-0.02s-0.006,0-.008-0.01-0.022-.01-0.032-0.01l-0.012-.01c-0.014,0-.026-0.01-0.04-0.01s-0.028-.01-0.042-0.02H68.384c-0.01,0-.022-0.01-0.034-0.01H68.34a0.072,0.072,0,0,0-.044-0.01h-0.01c-0.012,0-.024-0.01-0.036-0.01H68.134a0.049,0.049,0,0,1-.036.01h-0.01a0.072,0.072,0,0,0-.044.01h-0.01a0.045,0.045,0,0,0-.034.01H67.988c-0.014.01-.028,0.01-0.042,0.02s-0.026.01-.04,0.01l-0.012.01c-0.012,0-.022.01-0.032,0.01s-0.006.01-.008,0.01-0.026.01-.038,0.02-0.006,0-.008.01a0.049,0.049,0,0,0-.028.02H67.77l-0.034.03c-0.012.01-.022,0.02-0.032,0.03l-0.038.03a0.136,0.136,0,0,0-.028.04H67.632c-0.006.01-.014,0.02-0.02,0.03s0,0.01-.006.01l-0.024.04h0a0.146,0.146,0,0,0-.02.04A0.7,0.7,0,0,0,67.562,1367.77Zm5.6-5.19a2.246,2.246,0,0,1,.64-0.1,1.943,1.943,0,0,0-.64.1v-1.54a0.159,0.159,0,0,1,.16-0.16h0.96a0.159,0.159,0,0,1,.16.16v1.54a2.081,2.081,0,0,1,0,3.96,2.241,2.241,0,0,1-.64.1,1.94,1.94,0,0,0,.64-0.1v4.42a0.159,0.159,0,0,1-.16.16H73.32a0.159,0.159,0,0,1-.16-0.16v-4.42A2.081,2.081,0,0,1,73.16,1362.58Zm0,2.31a0.107,0.107,0,0,0,.02.04h0l0.024,0.04s0,0,.006.01a0.234,0.234,0,0,0,.02.03h0.006a0.46,0.46,0,0,0,.028.04l0.038,0.03,0.032,0.03c0.01,0.01.022,0.02,0.034,0.03h0.01a0.043,0.043,0,0,0,.028.02c0,0.01.006,0.01,0.008,0.01a0.069,0.069,0,0,0,.038.02s0.006,0,.008.01,0.022,0.01.032,0.01l0.012,0.01c0.014,0,.026.01,0.04,0.01s0.028,0.01.042,0.02H73.6c0.01,0,.022.01,0.034,0.01h0.01a0.07,0.07,0,0,0,.044.01H73.7c0.012,0,.024.01,0.036,0.01H73.85a0.049,0.049,0,0,1,.036-0.01H73.9a0.072,0.072,0,0,0,.044-0.01h0.01a0.045,0.045,0,0,0,.034-0.01H74c0.014-.01.028-0.01,0.042-0.02s0.026-.01.04-0.01l0.012-.01c0.012,0,.022-0.01.032-0.01s0.006-.01.008-0.01,0.026-.01.038-0.02,0.006,0,.008-0.01a0.049,0.049,0,0,0,.028-0.02h0.01l0.034-.03c0.012-.01.022-0.02,0.032-0.03l0.038-.03a0.137,0.137,0,0,0,.028-0.04h0.006l0.02-.03c0-.01,0-0.01.006-0.01l0.024-.04h0a0.146,0.146,0,0,0,.02-0.04,0.7,0.7,0,0,0,0-.66,0.109,0.109,0,0,0-.02-0.04h0l-0.024-.04s0,0-.006-0.01a0.291,0.291,0,0,0-.02-0.03H74.346a0.441,0.441,0,0,0-.028-0.04H74.312l-0.024-.03H74.28l-0.032-.03c-0.01-.01-0.022-0.02-0.034-0.03H74.2a0.043,0.043,0,0,0-.028-0.02c0-.01-0.006-0.01-0.008-0.01a0.072,0.072,0,0,0-.038-0.02s-0.006,0-.008-0.01-0.022-.01-0.032-0.01l-0.012-.01c-0.014,0-.026-0.01-0.04-0.01s-0.028-.01-0.042-0.02H73.984c-0.01,0-.022-0.01-0.034-0.01H73.94a0.072,0.072,0,0,0-.044-0.01h-0.01c-0.012,0-.024-0.01-0.036-0.01H73.734a0.05,0.05,0,0,1-.036.01h-0.01a0.07,0.07,0,0,0-.044.01h-0.01a0.045,0.045,0,0,0-.034.01H73.588c-0.014.01-.028,0.01-0.042,0.02s-0.026.01-.04,0.01l-0.012.01c-0.012,0-.022.01-0.032,0.01s-0.006.01-.008,0.01-0.026.01-.038,0.02-0.006,0-.008.01a0.049,0.049,0,0,0-.028.02H73.37l-0.034.03c-0.012.01-.022,0.02-0.032,0.03H73.3l-0.024.03H73.266a0.137,0.137,0,0,0-.028.04H73.232c-0.006.01-.014,0.02-0.02,0.03s0,0.01-.006.01l-0.024.04h0a0.144,0.144,0,0,0-.02.04A0.7,0.7,0,0,0,73.162,1364.89Z" transform="translate(-63 -1358)"/>
</svg>
