<svg xmlns="http://www.w3.org/2000/svg" width="16" height="16" viewBox="0 0 16 16">
  <defs>
    <style>
      .cls-1 {
        fill: #fff;
        fill-rule: evenodd;
      }
    </style>
  </defs>
  <path id="后台icon" class="cls-1" d="M3880.36,1111h-14.72a0.644,0.644,0,0,1-.64-0.64v-14.72a0.644,0.644,0,0,1,.64-0.64h14.72a0.644,0.644,0,0,1,.64.64v14.72A0.644,0.644,0,0,1,3880.36,1111Zm-0.8-14.56h-13.12v13.12h13.12v-13.12Zm-10.38,3.22,3.84,3.22a0.15,0.15,0,0,1,0,.24l-3.84,3.22a0.156,0.156,0,0,1-.26-0.12v-1.25a0.161,0.161,0,0,1,.06-0.13l2.19-1.84-2.19-1.84a0.161,0.161,0,0,1-.06-0.13v-1.25A0.156,0.156,0,0,1,3869.18,1099.66Zm4.05,5.44h3.7a0.156,0.156,0,0,1,.15.16v0.96a0.156,0.156,0,0,1-.15.16h-3.7a0.156,0.156,0,0,1-.15-0.16v-0.96A0.156,0.156,0,0,1,3873.23,1105.1Z" transform="translate(-3865 -1095)"/>
</svg>
