<svg xmlns="http://www.w3.org/2000/svg" width="16" height="16" viewBox="0 0 16 16">
  <metadata><?xpacket begin="﻿" id="W5M0MpCehiHzreSzNTczkc9d"?>
<x:xmpmeta xmlns:x="adobe:ns:meta/" x:xmptk="Adobe XMP Core 5.6-c138 79.159824, 2016/09/14-01:09:01        ">
   <rdf:RDF xmlns:rdf="http://www.w3.org/1999/02/22-rdf-syntax-ns#">
      <rdf:Description rdf:about=""/>
   </rdf:RDF>
</x:xmpmeta>
                                                                                                    
                                                                                                    
                                                                                                    
                                                                                                    
                                                                                                    
                                                                                                    
                                                                                                    
                                                                                                    
                                                                                                    
                                                                                                    
                                                                                                    
                                                                                                    
                                                                                                    
                                                                                                    
                                                                                                    
                                                                                                    
                                                                                                    
                                                                                                    
                                                                                                    
                                                                                                    
                           
<?xpacket end="w"?></metadata>
<defs>
    <style>
      .cls-1 {
        fill: #fff;
        fill-rule: evenodd;
      }
    </style>
  </defs>
  <path id="后台icon" class="cls-1" d="M1825.08,1064.22a0.156,0.156,0,0,0,.15.16h3.7a0.156,0.156,0,0,0,.15-0.16v-0.96a0.156,0.156,0,0,0-.15-0.16h-3.7a0.156,0.156,0,0,0-.15.16v0.96Zm-3.9.12,3.84-3.22a0.15,0.15,0,0,0,0-.24l-3.84-3.22a0.156,0.156,0,0,0-.26.12v1.25a0.161,0.161,0,0,0,.06.13l2.19,1.84-2.19,1.84a0.161,0.161,0,0,0-.06.13v1.25a0.156,0.156,0,0,0,.26.12h0Zm0,0,11.18-11.34h-14.72a0.644,0.644,0,0,0-.64.64v14.72a0.644,0.644,0,0,0,.64.64h14.72a0.644,0.644,0,0,0,.64-0.64v-14.72a0.644,0.644,0,0,0-.64-0.64h0Zm-0.8,14.56h-13.12v-13.12h13.12v13.12Zm0,0" transform="translate(-1817 -1053)"/>
</svg>
