<svg xmlns="http://www.w3.org/2000/svg" width="16" height="16" viewBox="0 0 16 16">
  <defs>
    <style>
      .cls-1 {
        fill: #fff;
        fill-rule: evenodd;
      }
    </style>
  </defs>
  <path id="传输icon" class="cls-1" d="M5714,2132l-7-4v-8l7-4,7,4v8Zm6-11.5-6-3.5-6,3.5v7l6,3.5,6-3.5v-7Zm-4.32-.5a0.09,0.09,0,0,1,.09.09v6.57l2.08-1.56a0.09,0.09,0,0,1,.15.06v0.79a0.175,0.175,0,0,1-.07.14l-2.43,1.83a0.365,0.365,0,0,1-.59-0.27v-7.56a0.09,0.09,0,0,1,.09-0.09h0.68Zm-3.36,8a0.09,0.09,0,0,1-.09-0.09v-6.58l-2.08,1.57a0.091,0.091,0,0,1-.15-0.07v-0.78a0.151,0.151,0,0,1,.07-0.14l2.43-1.83a0.365,0.365,0,0,1,.59.27v7.56a0.09,0.09,0,0,1-.09.09h-0.68Z" transform="translate(-5706 -2116)"/>
</svg>
