<svg xmlns="http://www.w3.org/2000/svg" width="16" height="16" viewBox="0 0 16 16">
  <defs>
    <style>
      .cls-1 {
        fill: #fff;
        fill-rule: evenodd;
      }
    </style>
  </defs>
  <path id="用户icon" class="cls-1" d="M4421.45,1376.42a6.693,6.693,0,0,0-1.5-2.1,6.987,6.987,0,0,0-2.23-1.41c0-.01-0.01-0.01-0.02-0.01a4.288,4.288,0,0,0,1.92-3.54,4.628,4.628,0,0,0-9.24,0,4.288,4.288,0,0,0,1.92,3.54,0.037,0.037,0,0,0-.03.01,7.053,7.053,0,0,0-2.22,1.41,6.622,6.622,0,0,0-1.5,2.11,6.15,6.15,0,0,0-.55,2.42,0.147,0.147,0,0,0,.15.15h1.11a0.139,0.139,0,0,0,.15-0.14,5.108,5.108,0,0,1,1.64-3.59,5.808,5.808,0,0,1,7.9,0,5.057,5.057,0,0,1,1.63,3.59,0.152,0.152,0,0,0,.15.14h1.12a0.154,0.154,0,0,0,.15-0.15,6.237,6.237,0,0,0-.55-2.43h0Zm-6.45-4.03a3.3,3.3,0,0,1-2.27-.89,2.927,2.927,0,0,1,0-4.28,3.355,3.355,0,0,1,4.53,0,2.906,2.906,0,0,1,0,4.28,3.278,3.278,0,0,1-2.26.89h0Zm0,0" transform="translate(-4407 -1364)"/>
</svg>
