<svg xmlns="http://www.w3.org/2000/svg" width="16" height="16" viewBox="0 0 16 16">
  <defs>
    <style>
      .cls-1 {
        fill: #fff;
        fill-rule: evenodd;
      }
    </style>
  </defs>
  <path id="告警icon" class="cls-1" d="M5794.43,2128.65H5794v-6.18a5.071,5.071,0,0,0-4.29-5.04v-0.7a0.71,0.71,0,1,0-1.42,0v0.7a5.071,5.071,0,0,0-4.29,5.04v6.18h-0.43a0.574,0.574,0,0,0-.57.59v0.58a0.137,0.137,0,0,0,.14.14H5787a2,2,0,1,0,4,0h3.86a0.137,0.137,0,0,0,.14-0.14v-0.58a0.581,0.581,0,0,0-.57-0.59h0Zm-5.43,2.19a0.871,0.871,0,0,1-.86-0.88h1.72a0.871,0.871,0,0,1-.86.88h0Zm-3.71-2.19v-6.18a3.774,3.774,0,0,1,1.08-2.67,3.671,3.671,0,0,1,5.26,0,3.774,3.774,0,0,1,1.08,2.67v6.18h-7.42Zm0,0" transform="translate(-5781 -2116)"/>
</svg>
