<svg xmlns="http://www.w3.org/2000/svg" width="16" height="16" viewBox="0 0 16 16">
  <metadata><?xpacket begin="﻿" id="W5M0MpCehiHzreSzNTczkc9d"?>
<x:xmpmeta xmlns:x="adobe:ns:meta/" x:xmptk="Adobe XMP Core 5.6-c138 79.159824, 2016/09/14-01:09:01        ">
   <rdf:RDF xmlns:rdf="http://www.w3.org/1999/02/22-rdf-syntax-ns#">
      <rdf:Description rdf:about=""/>
   </rdf:RDF>
</x:xmpmeta>
                                                                                                    
                                                                                                    
                                                                                                    
                                                                                                    
                                                                                                    
                                                                                                    
                                                                                                    
                                                                                                    
                                                                                                    
                                                                                                    
                                                                                                    
                                                                                                    
                                                                                                    
                                                                                                    
                                                                                                    
                                                                                                    
                                                                                                    
                                                                                                    
                                                                                                    
                                                                                                    
                           
<?xpacket end="w"?></metadata>
<defs>
    <style>
      .cls-1 {
        fill: #fff;
        fill-rule: evenodd;
      }
    </style>
  </defs>
  <path id="审计中心icon" class="cls-1" d="M50.7,1087H44.149a0.3,0.3,0,0,1-.3-0.29v-2.79a0.3,0.3,0,0,1,.3-0.3H46.83v-0.67a2.085,2.085,0,1,1,1.191,0v0.67H50.7a0.3,0.3,0,0,1,.3.3v2.79A0.3,0.3,0,0,1,50.7,1087Zm-2.346-6.02a0.931,0.931,0,1,0-.931.92A0.931,0.931,0,0,0,48.356,1080.98Zm1.489,3.78h-4.84v1.1h4.84v-1.1Zm0.112-6.42H48.915a0.152,0.152,0,0,1-.149-0.15v-5.87H38.341v12.92h4.17a0.145,0.145,0,0,1,.149.15v1.02a0.152,0.152,0,0,1-.149.15H37.6a0.59,0.59,0,0,1-.6-0.59v-14.38a0.59,0.59,0,0,1,.6-0.59H49.511a0.59,0.59,0,0,1,.6.59v6.6A0.151,0.151,0,0,1,49.957,1078.34Zm-10.128-3.12v-0.88a0.151,0.151,0,0,1,.149-0.15h7.149a0.152,0.152,0,0,1,.149.15v0.88a0.152,0.152,0,0,1-.149.15H39.979A0.151,0.151,0,0,1,39.83,1075.22Zm0,2.64v-0.88a0.151,0.151,0,0,1,.149-0.15H43.4a0.152,0.152,0,0,1,.149.15v0.88a0.152,0.152,0,0,1-.149.15H39.979A0.151,0.151,0,0,1,39.83,1077.86Z" transform="translate(-36 -1071)"/>
</svg>
