<svg xmlns="http://www.w3.org/2000/svg" width="16" height="16" viewBox="0 0 16 16">
  <metadata><?xpacket begin="﻿" id="W5M0MpCehiHzreSzNTczkc9d"?>
<x:xmpmeta xmlns:x="adobe:ns:meta/" x:xmptk="Adobe XMP Core 5.6-c138 79.159824, 2016/09/14-01:09:01        ">
   <rdf:RDF xmlns:rdf="http://www.w3.org/1999/02/22-rdf-syntax-ns#">
      <rdf:Description rdf:about=""/>
   </rdf:RDF>
</x:xmpmeta>
                                                                                                    
                                                                                                    
                                                                                                    
                                                                                                    
                                                                                                    
                                                                                                    
                                                                                                    
                                                                                                    
                                                                                                    
                                                                                                    
                                                                                                    
                                                                                                    
                                                                                                    
                                                                                                    
                                                                                                    
                                                                                                    
                                                                                                    
                                                                                                    
                                                                                                    
                                                                                                    
                           
<?xpacket end="w"?></metadata>
<defs>
    <style>
      .cls-1 {
        fill: #fff;
        fill-rule: evenodd;
      }
    </style>
  </defs>
  <path id="容器管理icon" class="cls-1" d="M42.956,1121H36.348a0.352,0.352,0,0,0-.348.35v6.61a0.343,0.343,0,0,0,.348.34h6.609a0.343,0.343,0,0,0,.348-0.34v-6.61a0.352,0.352,0,0,0-.348-0.35h0Zm-1.13,5.83H37.478v-4.35h4.348v4.35Zm9.826-5.83H45.044a0.352,0.352,0,0,0-.348.35v6.61a0.343,0.343,0,0,0,.348.34h6.609a0.343,0.343,0,0,0,.348-0.34v-6.61a0.352,0.352,0,0,0-.348-0.35h0Zm-1.131,5.83H46.174v-4.35h4.348v4.35Zm-7.565,2.87H36.348a0.343,0.343,0,0,0-.348.34v6.61a0.352,0.352,0,0,0,.348.35h6.609a0.352,0.352,0,0,0,.348-0.35v-6.61a0.343,0.343,0,0,0-.348-0.34h0Zm-1.13,5.82H37.478v-4.35h4.348v4.35Zm9.826-5.82H45.044a0.343,0.343,0,0,0-.348.34v6.61a0.352,0.352,0,0,0,.348.35h6.609a0.352,0.352,0,0,0,.348-0.35v-6.61a0.343,0.343,0,0,0-.348-0.34h0Zm-1.131,5.82H46.174v-4.35h4.348v4.35Zm0,0" transform="translate(-36 -1121)"/>
</svg>
