<svg xmlns="http://www.w3.org/2000/svg" width="16" height="16" viewBox="0 0 16 16">
  <metadata><?xpacket begin="﻿" id="W5M0MpCehiHzreSzNTczkc9d"?>
<x:xmpmeta xmlns:x="adobe:ns:meta/" x:xmptk="Adobe XMP Core 5.6-c138 79.159824, 2016/09/14-01:09:01        ">
   <rdf:RDF xmlns:rdf="http://www.w3.org/1999/02/22-rdf-syntax-ns#">
      <rdf:Description rdf:about=""/>
   </rdf:RDF>
</x:xmpmeta>
                                                                                                    
                                                                                                    
                                                                                                    
                                                                                                    
                                                                                                    
                                                                                                    
                                                                                                    
                                                                                                    
                                                                                                    
                                                                                                    
                                                                                                    
                                                                                                    
                                                                                                    
                                                                                                    
                                                                                                    
                                                                                                    
                                                                                                    
                                                                                                    
                                                                                                    
                                                                                                    
                           
<?xpacket end="w"?></metadata>
<defs>
    <style>
      .cls-1 {
        fill: #fff;
        fill-rule: evenodd;
      }
    </style>
  </defs>
  <path id="编辑icon" class="cls-1" d="M1792.84,1061h-1.12a0.158,0.158,0,0,0-.16.16v6.4h-13.12v-13.12h6.4a0.158,0.158,0,0,0,.16-0.16v-1.12a0.158,0.158,0,0,0-.16-0.16h-7.2a0.644,0.644,0,0,0-.64.64v14.72a0.644,0.644,0,0,0,.64.64h14.72a0.644,0.644,0,0,0,.64-0.64v-7.2a0.158,0.158,0,0,0-.16-0.16h0Zm0,0-10.96.46-0.04,2.38a0.322,0.322,0,0,0,.32.32h0.01l2.36-.06a0.21,0.21,0,0,0,.11-0.04l8.31-8.3a0.152,0.152,0,0,0,0-.23l-2.48-2.48a0.135,0.135,0,0,0-.12-0.05,0.161,0.161,0,0,0-.11.05l-8.32,8.3a0.21,0.21,0,0,0-.04.11h0Zm1.27,0.47,7.2-7.19,0.91,0.9-7.21,7.2-0.92.02Zm0,0" transform="translate(-1777 -1053)"/>
</svg>
