<svg xmlns="http://www.w3.org/2000/svg" width="16" height="16" viewBox="0 0 16 16">
  <metadata><?xpacket begin="﻿" id="W5M0MpCehiHzreSzNTczkc9d"?>
<x:xmpmeta xmlns:x="adobe:ns:meta/" x:xmptk="Adobe XMP Core 5.6-c138 79.159824, 2016/09/14-01:09:01        ">
   <rdf:RDF xmlns:rdf="http://www.w3.org/1999/02/22-rdf-syntax-ns#">
      <rdf:Description rdf:about=""/>
   </rdf:RDF>
</x:xmpmeta>
                                                                                                    
                                                                                                    
                                                                                                    
                                                                                                    
                                                                                                    
                                                                                                    
                                                                                                    
                                                                                                    
                                                                                                    
                                                                                                    
                                                                                                    
                                                                                                    
                                                                                                    
                                                                                                    
                                                                                                    
                                                                                                    
                                                                                                    
                                                                                                    
                                                                                                    
                                                                                                    
                           
<?xpacket end="w"?></metadata>
<defs>
    <style>
      .cls-1 {
        fill: #fff;
        fill-rule: evenodd;
      }
    </style>
  </defs>
  <path id="首页icon" class="cls-1" d="M51.668,1028.87l-6.819-6.33-0.457-.42a0.587,0.587,0,0,0-.784,0l-7.276,6.75a1.007,1.007,0,0,0-.332.75,1.1,1.1,0,0,0,1.145,1.04H37.9V1036H50.1v-5.34h0.766a1.163,1.163,0,0,0,.8-0.31,0.988,0.988,0,0,0,.33-0.74,1.006,1.006,0,0,0-.332-0.74h0Zm-6.68,5.95H43.012v-3.34h1.977v3.34Zm3.846-5.34v5.34H46.118v-3.74a0.679,0.679,0,0,0-.706-0.65H42.588a0.679,0.679,0,0,0-.706.65v3.74H39.166v-5.34H37.472l6.53-6.06,0.407,0.38,6.12,5.68h-1.7Zm0,0" transform="translate(-36 -1020.985)"/>
</svg>
