<svg xmlns="http://www.w3.org/2000/svg" width="16" height="16" viewBox="0 0 16 16">
  <defs>
    <style>
      .cls-1 {
        fill: #fff;
        fill-rule: evenodd;
      }
    </style>
  </defs>
  <path id="浏览网络" class="cls-1" d="M3170.83,834h-3.66a0.165,0.165,0,0,1-.17-0.167v-3.666a0.165,0.165,0,0,1,.17-0.167h1.12v-1.5h-4.58V830h1.12a0.171,0.171,0,0,1,.17.167v3.666a0.171,0.171,0,0,1-.17.167h-3.66a0.165,0.165,0,0,1-.17-0.167v-3.666a0.165,0.165,0,0,1,.17-0.167h1.12v-1.5h-4.58V830h1.12a0.171,0.171,0,0,1,.17.167v3.666a0.171,0.171,0,0,1-.17.167h-3.66a0.165,0.165,0,0,1-.17-0.167v-3.666a0.165,0.165,0,0,1,.17-0.167h1.12v-2.917h6v-1.916h-4.96a0.334,0.334,0,0,1-.33-0.334v-5.5a0.334,0.334,0,0,1,.33-0.333h11.34a0.334,0.334,0,0,1,.33.333v5.5a0.334,0.334,0,0,1-.33.334h-4.96v1.916h6V830h1.12a0.171,0.171,0,0,1,.17.167v3.666A0.171,0.171,0,0,1,3170.83,834Zm-13.16-2.613a0.06,0.06,0,0,0-.06-0.056h-1.22a0.06,0.06,0,0,0-.06.056v1.223a0.06,0.06,0,0,0,.06.057h1.22a0.06,0.06,0,0,0,.06-0.057v-1.223Zm4.66,1.223a0.06,0.06,0,0,0,.06.057h1.22a0.06,0.06,0,0,0,.06-0.057v-1.223a0.06,0.06,0,0,0-.06-0.056h-1.22a0.06,0.06,0,0,0-.06.056v1.223Zm5.34-8.777v-3.5h-9.34v3.5h9.34Zm2,7.554a0.06,0.06,0,0,0-.06-0.056h-1.22a0.06,0.06,0,0,0-.06.056v1.223a0.06,0.06,0,0,0,.06.057h1.22a0.06,0.06,0,0,0,.06-0.057v-1.223Zm-9-10.137a0.834,0.834,0,0,1,0,1.667A0.834,0.834,0,1,1,3160.67,821.25Z" transform="translate(-3155 -818.5)"/>
</svg>
